<?xml version="1.0" standalone="no"?>
<!DOCTYPE svg PUBLIC "-//W3C//DTD SVG 20010904//EN"
 "http://www.w3.org/TR/2001/REC-SVG-20010904/DTD/svg10.dtd">
<svg version="1.0" xmlns="http://www.w3.org/2000/svg"
 width="769.000000pt" height="199.000000pt" viewBox="0 0 769.000000 199.000000"
 preserveAspectRatio="xMidYMid meet">

<g transform="translate(0.000000,199.000000) scale(0.100000,-0.100000)"
fill="#000000" stroke="none">
<path d="M2770 945 c0 -620 2 -705 15 -705 13 0 15 85 15 705 0 620 -2 705
-15 705 -13 0 -15 -85 -15 -705z"/>
<path d="M810 1614 c-36 -7 -94 -28 -130 -46 l-65 -33 -3 -188 -2 -187 41 44
c77 85 188 136 291 136 l48 0 0 145 0 145 -57 -1 c-32 0 -87 -7 -123 -15z"/>
<path d="M5380 1446 c0 -38 9 -44 52 -38 l30 4 -33 34 c-18 19 -37 34 -41 34
-4 0 -8 -15 -8 -34z"/>
<path d="M3016 1415 c-3 -9 -6 -42 -6 -74 l0 -56 98 -98 97 -97 80 0 79 0 -38
39 -37 38 53 6 c32 4 58 13 65 24 18 23 11 26 -23 8 -43 -22 -179 -20 -224 4
-32 17 -36 23 -43 78 -7 53 -14 65 -51 102 -36 35 -44 40 -50 26z"/>
<path d="M3636 1405 c-3 -9 -6 -40 -6 -69 l0 -51 93 -93 92 -92 75 0 74 0 -33
34 -33 34 55 6 c53 7 98 28 86 40 -3 4 -19 0 -35 -9 -61 -31 -240 -13 -266 28
-4 7 -8 32 -8 57 0 41 -5 51 -44 89 -36 35 -44 40 -50 26z"/>
<path d="M4830 1363 c0 -29 7 -49 23 -67 22 -24 91 -44 101 -28 3 5 -24 37
-59 72 l-65 64 0 -41z"/>
<path d="M5900 1299 l0 -75 63 -62 63 -62 74 0 74 0 -33 34 -32 33 47 7 c88
12 162 7 172 -10 8 -14 10 -13 15 5 5 21 3 21 -152 21 -147 0 -158 1 -175 21
-10 12 -16 29 -13 39 3 12 -13 35 -49 71 l-54 53 0 -75z"/>
<path d="M6420 1299 l0 -75 63 -62 63 -62 74 0 74 0 -33 34 -32 33 47 7 c88
12 162 7 172 -10 8 -14 10 -13 15 5 5 21 3 21 -152 21 -147 0 -158 1 -175 21
-10 12 -16 29 -13 39 3 12 -13 35 -49 71 l-54 53 0 -75z"/>
<path d="M5550 1272 c0 -29 -4 -52 -10 -52 -5 0 -10 -16 -10 -35 0 -19 5 -35
10 -35 6 0 10 10 10 22 0 19 7 16 50 -27 49 -48 50 -49 50 -22 0 15 5 27 10
27 6 0 9 15 9 33 -1 26 -13 43 -60 86 l-59 54 0 -51z"/>
<path d="M4280 1237 c-49 -43 -77 -96 -43 -83 11 4 27 -4 49 -25 l32 -31 17
26 c17 26 18 26 154 27 108 2 125 3 81 9 -30 5 -82 8 -115 9 -56 1 -62 3 -105
45 l-45 45 -25 -22z"/>
<path d="M6943 1233 c-7 -15 -13 -40 -13 -56 0 -19 4 -27 13 -24 6 2 26 -9 43
-25 27 -25 38 -29 78 -26 l47 3 -78 77 -78 77 -12 -26z"/>
<path d="M2990 1199 c0 -14 7 -34 15 -45 14 -18 14 -16 9 16 -8 44 -24 63 -24
29z"/>
<path d="M3538 1207 c-12 -29 -10 -73 3 -60 6 6 9 26 7 44 -2 26 -5 30 -10 16z"/>
<path d="M3610 1199 c0 -14 7 -34 15 -45 14 -18 14 -16 9 16 -8 44 -24 63 -24
29z"/>
<path d="M4156 1195 c-4 -16 -9 -36 -12 -42 -2 -7 1 -13 6 -13 12 0 23 42 17
67 -3 13 -6 10 -11 -12z"/>
<path d="M4717 1203 c6 -25 32 -58 39 -51 7 8 -24 68 -35 68 -5 0 -7 -8 -4
-17z"/>
<path d="M4810 1180 c0 -22 5 -40 10 -40 6 0 10 16 10 35 0 32 3 35 28 35 20
0 42 -15 82 -55 l54 -55 70 0 70 0 -28 29 -28 29 48 7 c69 9 74 12 74 37 -1
20 -2 21 -11 6 -9 -16 -26 -18 -124 -18 -96 0 -115 3 -115 15 0 12 -14 15 -70
15 l-70 0 0 -40z"/>
<path d="M5318 1214 c-5 -4 -8 -23 -8 -43 0 -25 3 -32 11 -24 6 6 9 25 7 43
-2 17 -6 28 -10 24z"/>
<path d="M5880 1184 c0 -21 4 -33 10 -29 6 3 10 19 10 36 0 16 -4 29 -10 29
-5 0 -10 -16 -10 -36z"/>
<path d="M6400 1184 c0 -21 4 -33 10 -29 6 3 10 19 10 36 0 16 -4 29 -10 29
-5 0 -10 -16 -10 -36z"/>
<path d="M7050 1198 c0 -23 2 -23 132 -23 96 0 132 -3 136 -12 6 -20 22 -15
22 7 0 19 -7 20 -130 20 -107 0 -132 3 -136 15 -9 23 -24 18 -24 -7z"/>
<path d="M1276 1044 l-6 -49 364 -364 364 -363 68 11 c38 7 100 26 137 43 l68
31 -107 108 c-68 68 -101 108 -93 111 8 3 40 -19 71 -48 79 -75 105 -72 39 5
-76 88 -69 84 -155 71 -41 -7 -94 -10 -118 -6 -56 8 -142 48 -185 86 -18 17
-42 30 -52 30 -11 0 -31 19 -50 48 l-30 47 97 3 c53 1 100 6 104 10 4 4 -50
65 -120 134 l-127 127 -131 7 -131 7 -7 -49z"/>
<path d="M3960 984 c-68 -25 -80 -50 -80 -170 0 -78 2 -86 28 -115 27 -30 32
-32 124 -37 132 -6 205 4 234 33 20 20 24 34 24 90 l0 65 -110 0 -110 0 0 -30
c0 -30 1 -30 54 -30 58 0 70 -7 56 -30 -14 -22 -143 -27 -175 -6 -22 14 -25
24 -25 71 0 75 13 85 106 85 62 0 77 -3 91 -20 12 -14 30 -20 60 -20 42 0 43
1 43 34 0 19 -9 44 -19 57 -18 23 -26 24 -153 26 -73 1 -140 0 -148 -3z"/>
<path d="M6993 979 c-53 -15 -63 -40 -63 -154 0 -116 10 -138 68 -155 41 -11
175 -13 245 -4 71 10 87 31 87 114 l0 70 -105 0 -105 0 0 -30 c0 -30 1 -30 55
-30 60 0 75 -19 34 -41 -27 -14 -154 -8 -171 9 -6 6 -12 37 -12 68 -1 72 14
84 106 84 55 0 72 -4 88 -20 14 -14 33 -20 65 -20 41 0 45 2 45 25 0 44 -21
74 -59 85 -44 12 -234 12 -278 -1z"/>
<path d="M2990 825 l0 -155 175 0 175 0 0 35 0 34 -127 3 c-124 3 -128 4 -131
26 -3 22 -2 22 117 22 l121 0 0 35 0 35 -121 0 c-119 0 -120 0 -117 23 3 21 7
22 126 25 l122 3 0 34 0 35 -170 0 -170 0 0 -155z"/>
<path d="M3390 825 l0 -155 50 0 49 0 3 111 3 111 90 -111 90 -111 73 0 72 0
0 155 0 155 -45 0 -44 0 -3 -112 -3 -113 -90 112 -90 112 -77 1 -78 0 0 -155z"/>
<path d="M4350 825 l0 -155 50 0 50 0 0 155 0 155 -50 0 -50 0 0 -155z"/>
<path d="M4520 825 l0 -155 45 0 44 0 3 112 3 111 90 -111 90 -111 73 0 72 -1
0 155 0 155 -45 0 -44 0 -3 -112 -3 -112 -90 112 -90 112 -72 0 -73 0 0 -155z"/>
<path d="M5010 825 l0 -155 175 0 175 0 0 35 0 34 -127 3 c-124 3 -128 4 -131
26 -3 22 -2 22 117 22 l121 0 0 35 0 35 -121 0 c-119 0 -120 0 -117 23 3 21 7
22 126 25 l122 3 0 34 0 35 -170 0 -170 0 0 -155z"/>
<path d="M5410 825 l0 -155 175 0 175 0 0 35 0 34 -122 3 c-119 3 -123 4 -126
26 -3 22 -2 22 117 22 l121 0 0 35 0 35 -121 0 c-119 0 -120 0 -117 23 3 21 7
22 126 25 l122 3 0 34 0 35 -175 0 -175 0 0 -155z"/>
<path d="M5820 825 l0 -155 50 0 50 0 0 40 0 40 83 0 c91 0 107 -8 107 -52 0
-27 2 -28 45 -28 l45 0 0 49 c0 31 -5 53 -15 61 -14 11 -14 15 2 33 13 14 18
35 17 74 0 89 -10 93 -215 93 l-169 0 0 -155z m275 72 c13 -10 16 -21 11 -40
-6 -27 -7 -27 -96 -27 l-90 0 0 40 0 40 78 0 c50 0 85 -5 97 -13z"/>
<path d="M6270 825 l0 -155 50 0 50 0 0 155 0 155 -50 0 -50 0 0 -155z"/>
<path d="M6440 825 l0 -155 50 0 49 0 3 107 3 108 88 -108 89 -107 74 0 74 0
0 155 0 155 -50 0 -49 0 -3 -110 -3 -109 -89 109 -88 110 -74 0 -74 0 0 -155z"/>
<path d="M270 716 c0 -24 68 -149 107 -198 21 -26 46 -47 55 -48 13 0 3 19
-37 75 -29 41 -65 100 -80 130 -24 52 -45 71 -45 41z"/>
<path d="M610 536 l0 -195 53 -25 c76 -37 161 -56 249 -56 l78 0 0 197 c0 194
0 196 25 229 28 37 30 44 12 44 -7 0 -46 -33 -86 -74 l-74 -74 -37 13 c-52 18
-108 56 -149 99 -19 20 -43 36 -53 36 -17 0 -18 -14 -18 -194z"/>
<path d="M1297 668 c9 -24 23 -53 31 -66 14 -22 13 -26 -31 -70 -26 -26 -47
-51 -47 -55 0 -18 28 -4 65 33 l41 40 39 -40 c64 -65 68 -46 8 38 -30 42 -65
96 -76 120 -12 23 -27 42 -34 42 -10 0 -9 -10 4 -42z"/>
</g>
</svg>
