<?xml version="1.0" standalone="no"?>
<!DOCTYPE svg PUBLIC "-//W3C//DTD SVG 20010904//EN"
 "http://www.w3.org/TR/2001/REC-SVG-20010904/DTD/svg10.dtd">
<svg version="1.0" xmlns="http://www.w3.org/2000/svg"
 width="562.000000pt" height="385.000000pt" viewBox="0 0 562.000000 385.000000"
 preserveAspectRatio="xMidYMid meet">

<g transform="translate(0.000000,385.000000) scale(0.100000,-0.100000)"
fill="#000000" stroke="none">
<path d="M2115 3549 c-78 -10 -134 -28 -212 -65 l-73 -35 0 -221 0 -221 29 36
c85 108 222 177 348 177 l53 0 -2 168 -3 167 -45 1 c-25 0 -67 -3 -95 -7z"/>
<path d="M2598 2878 l-5 -53 416 -417 c411 -413 416 -418 456 -418 55 0 141
23 222 60 l67 31 -122 122 c-67 67 -122 126 -122 130 0 18 27 2 88 -53 37 -33
76 -60 87 -60 15 0 0 20 -60 80 l-81 81 -54 -12 c-29 -6 -90 -9 -134 -7 -95 5
-164 33 -241 97 -27 22 -57 41 -66 41 -16 0 -79 82 -79 102 0 4 57 8 127 8
l128 0 -160 160 -160 160 -151 0 -152 0 -4 -52z"/>
<path d="M1444 2482 c38 -108 143 -262 178 -262 19 0 19 0 -1 28 -57 73 -106
149 -133 208 -16 35 -36 64 -43 64 -12 0 -12 -6 -1 -38z"/>
<path d="M1832 2293 l3 -228 65 -32 c78 -38 193 -63 290 -63 l70 0 0 226 0
227 35 43 c19 23 35 45 35 48 0 21 -39 -5 -116 -79 -49 -47 -95 -85 -103 -85
-31 0 -153 75 -196 121 -25 27 -55 49 -66 49 -19 0 -19 -7 -17 -227z"/>
<path d="M2610 2488 c0 -6 14 -42 32 -80 l31 -69 -34 -37 c-66 -71 -74 -82
-57 -82 9 0 38 20 66 45 l50 45 37 -45 c20 -25 45 -45 55 -45 15 0 8 14 -36
73 -30 39 -70 102 -90 140 -32 62 -54 84 -54 55z"/>
<path d="M3050 1570 l0 -40 47 0 47 0 -39 40 c-21 22 -43 40 -47 40 -4 0 -8
-18 -8 -40z"/>
<path d="M316 1535 c-3 -9 -6 -44 -6 -78 l0 -62 118 -118 117 -117 85 0 84 0
-43 44 -42 43 52 6 c57 7 99 29 99 52 0 20 -10 19 -26 -2 -10 -15 -31 -19
-109 -21 -120 -5 -153 1 -188 33 -23 22 -27 34 -27 78 0 50 -2 55 -54 106 -43
43 -54 49 -60 36z"/>
<path d="M1037 1534 c-4 -4 -7 -39 -7 -78 l0 -71 108 -108 107 -107 85 0 84 0
-38 39 -38 39 58 7 c33 4 69 13 82 21 22 15 31 44 12 44 -5 0 -10 -4 -10 -9 0
-27 -214 -44 -272 -22 -49 19 -68 48 -68 104 0 50 -3 55 -48 100 -27 26 -51
44 -55 41z"/>
<path d="M2417 1514 c-12 -12 -8 -63 7 -99 16 -38 65 -59 124 -53 l33 3 -79
78 c-43 43 -81 74 -85 71z"/>
<path d="M3650 1407 c0 -71 -3 -87 -15 -87 -11 0 -15 -12 -15 -46 0 -57 23
-56 28 1 l3 38 68 -67 c61 -60 72 -67 118 -73 28 -3 68 -2 88 1 l38 7 -32 33
c-17 18 -28 35 -25 39 4 4 58 7 121 7 94 0 113 -3 113 -15 0 -8 5 -15 10 -15
6 0 10 11 10 25 l0 25 -185 0 c-175 0 -185 1 -185 19 0 10 -7 21 -15 25 -17 6
-20 33 -5 38 6 2 -19 32 -55 68 l-65 64 0 -87z"/>
<path d="M4250 1407 c0 -71 -3 -87 -15 -87 -11 0 -15 -12 -15 -46 0 -57 23
-56 28 1 l3 38 68 -67 c61 -60 72 -67 118 -73 28 -3 68 -2 88 1 l38 7 -32 33
c-17 18 -28 35 -25 39 4 4 58 7 121 7 94 0 113 -3 113 -15 0 -8 5 -15 10 -15
6 0 10 4 10 9 0 5 3 16 6 25 5 14 -15 16 -185 16 -184 0 -191 1 -191 20 0 11
-4 20 -9 20 -14 0 -23 33 -12 40 6 3 -19 35 -54 70 l-65 64 0 -87z"/>
<path d="M3246 1405 c-3 -9 -6 -32 -6 -51 0 -19 -4 -34 -10 -34 -5 0 -10 -20
-10 -45 0 -50 14 -60 25 -18 l6 26 55 -54 c52 -52 54 -52 54 -26 0 15 4 27 9
27 5 0 11 9 14 19 7 27 -3 71 -16 71 -6 0 -35 23 -63 51 -42 41 -52 47 -58 34z"/>
<path d="M4860 1343 c0 -12 -5 -23 -11 -25 -13 -4 -17 -74 -5 -85 5 -4 11 -2
14 5 3 10 16 2 42 -23 29 -29 49 -38 83 -42 24 -3 47 -1 50 4 3 5 -34 50 -84
99 -70 70 -89 84 -89 67z"/>
<path d="M1790 1340 c0 -6 -10 -14 -22 -19 -29 -11 -77 -91 -54 -91 8 0 18 5
22 11 4 7 21 -4 46 -28 l39 -38 20 28 21 27 159 0 c104 0 158 3 154 10 -4 6
-61 10 -138 10 l-133 0 -49 50 c-49 50 -65 59 -65 40z"/>
<path d="M280 1308 c0 -33 22 -88 35 -88 11 0 12 5 5 23 -5 12 -11 34 -14 50
-6 27 -26 38 -26 15z"/>
<path d="M920 1313 c-1 -5 -5 -27 -9 -50 -9 -47 4 -59 19 -17 13 33 13 74 0
74 -5 0 -10 -3 -10 -7z"/>
<path d="M1003 1279 c5 -39 21 -68 31 -58 3 2 0 26 -6 52 -12 59 -33 64 -25 6z"/>
<path d="M1636 1303 c-14 -50 -17 -83 -7 -83 10 0 15 13 26 68 7 33 -10 47
-19 15z"/>
<path d="M2270 1315 c0 -18 45 -85 58 -85 10 0 8 11 -10 42 -20 37 -48 61 -48
43z"/>
<path d="M2389 1293 c-5 -38 0 -73 12 -73 5 0 9 18 9 40 0 39 1 40 33 40 27 0
44 -11 97 -65 l64 -65 85 0 85 0 -32 33 c-18 18 -32 36 -32 40 0 4 24 7 54 7
37 0 60 5 71 16 18 19 17 45 -4 52 -9 3 -11 0 -7 -7 4 -7 2 -18 -4 -26 -10
-12 -39 -15 -125 -15 -127 0 -145 4 -145 31 0 17 -8 19 -79 19 -78 0 -79 0
-82 -27z"/>
<path d="M2968 1273 c-5 -54 -4 -58 11 -48 13 8 15 95 2 95 -5 0 -11 -21 -13
-47z"/>
<path d="M4976 1298 c-3 -13 -6 -26 -6 -30 0 -5 72 -8 160 -8 136 0 160 -2
160 -15 0 -8 5 -15 10 -15 6 0 10 4 10 9 0 5 3 16 6 25 5 14 -12 16 -155 16
-154 0 -161 1 -161 20 0 27 -16 25 -24 -2z"/>
<path d="M290 855 l0 -185 200 0 200 0 0 45 0 45 -145 0 -145 0 0 30 0 30 135
0 135 0 0 35 0 35 -135 0 -135 0 0 30 0 30 145 0 145 0 0 45 0 45 -200 0 -200
0 0 -185z"/>
<path d="M760 855 l0 -185 55 0 54 0 3 131 3 130 108 -130 107 -131 80 0 80 0
0 185 0 185 -55 0 -54 0 -3 -130 -3 -131 -104 131 -105 130 -83 0 -83 0 0
-185z"/>
<path d="M1382 1025 c-46 -20 -62 -64 -62 -175 0 -168 22 -183 257 -178 l165
3 24 28 c21 24 24 38 24 103 l0 74 -125 0 -125 0 0 -35 0 -35 65 0 c47 0 65
-4 65 -13 0 -29 -25 -37 -110 -37 -115 0 -125 8 -125 95 0 88 10 95 127 95 77
0 89 -2 100 -20 10 -16 24 -20 70 -20 52 0 58 2 58 20 0 38 -28 90 -55 100
-42 16 -314 12 -353 -5z"/>
<path d="M1860 855 l0 -185 55 0 55 0 0 185 0 185 -55 0 -55 0 0 -185z"/>
<path d="M2050 855 l0 -185 60 0 60 0 0 131 0 131 108 -131 107 -131 83 0 82
0 0 185 0 185 -55 0 -54 0 -3 -132 -3 -131 -105 129 -106 129 -87 3 -87 3 0
-186z"/>
<path d="M2620 855 l0 -185 205 0 205 0 0 45 0 44 -147 3 -148 3 0 25 0 25
138 3 137 3 0 34 0 34 -137 3 -138 3 0 25 0 25 143 3 142 3 0 44 0 45 -200 0
-200 0 0 -185z"/>
<path d="M3090 855 l0 -185 205 0 205 0 0 45 0 44 -147 3 -148 3 0 25 0 25
138 3 137 3 0 34 0 34 -137 3 -138 3 0 25 0 25 143 3 142 3 0 44 0 45 -200 0
-200 0 0 -185z"/>
<path d="M3560 855 l0 -185 60 0 60 0 0 50 0 50 86 0 c107 0 124 -8 124 -60
l0 -40 61 0 61 0 -4 57 c-4 43 -10 61 -27 75 -19 15 -20 19 -8 24 34 13 47
101 23 159 -20 47 -57 55 -263 55 l-173 0 0 -185z m319 81 c7 -8 11 -27 9 -43
l-3 -28 -102 -3 -103 -3 0 46 0 45 94 0 c69 0 97 -4 105 -14z"/>
<path d="M4080 855 l0 -185 60 0 60 0 0 185 0 185 -60 0 -60 0 0 -185z"/>
<path d="M4280 855 l0 -185 55 0 54 0 3 129 3 130 105 -129 105 -129 83 -1 82
0 0 185 0 185 -55 0 -54 0 -3 -132 -3 -131 -105 131 -105 131 -82 1 -83 0 0
-185z"/>
<path d="M4905 1031 c-51 -21 -60 -46 -63 -171 l-4 -118 30 -33 30 -34 160 -3
c230 -5 252 8 252 144 l0 64 -125 0 -125 0 0 -35 0 -35 65 0 c50 0 65 -3 65
-15 0 -25 -35 -35 -119 -35 -68 0 -84 3 -101 20 -25 25 -28 114 -4 148 14 20
23 22 109 22 84 0 96 -2 107 -20 10 -16 24 -20 65 -20 l53 0 0 34 c0 86 -25
96 -222 95 -84 0 -162 -4 -173 -8z"/>
</g>
</svg>
